<mxfile host="app.diagrams.net" agent="Mozilla/5.0 (Macintosh; Intel Mac OS X 10.15; rv:135.0) Gecko/20100101 Firefox/135.0" version="26.0.16">
  <diagram name="Page-1" id="oC49LgRaTRkqlOdpRcL0">
    <mxGraphModel dx="1134" dy="736" grid="0" gridSize="10" guides="1" tooltips="1" connect="1" arrows="1" fold="1" page="1" pageScale="1" pageWidth="850" pageHeight="1100" math="0" shadow="0">
      <root>
        <mxCell id="0" />
        <mxCell id="1" parent="0" />
        <mxCell id="BxJ1AubEoh4twLCBfhUA-37" style="edgeStyle=orthogonalEdgeStyle;rounded=0;orthogonalLoop=1;jettySize=auto;html=1;entryX=0.5;entryY=0;entryDx=0;entryDy=0;" edge="1" parent="1" source="BxJ1AubEoh4twLCBfhUA-1" target="BxJ1AubEoh4twLCBfhUA-8">
          <mxGeometry relative="1" as="geometry" />
        </mxCell>
        <mxCell id="BxJ1AubEoh4twLCBfhUA-1" value="" style="rounded=1;whiteSpace=wrap;html=1;dashed=1;" vertex="1" parent="1">
          <mxGeometry x="240" y="100" width="320" height="60" as="geometry" />
        </mxCell>
        <mxCell id="BxJ1AubEoh4twLCBfhUA-2" value="&lt;span style=&quot;color: rgb(0, 0, 0);&quot;&gt;Mobile&lt;/span&gt;" style="verticalLabelPosition=bottom;html=1;verticalAlign=top;align=center;strokeColor=#00BEF2;fillColor=#00BEF2;shape=mxgraph.azure.mobile;pointerEvents=1;fontColor=#ffffff;" vertex="1" parent="1">
          <mxGeometry x="392" y="108" width="20" height="29" as="geometry" />
        </mxCell>
        <mxCell id="BxJ1AubEoh4twLCBfhUA-5" value="&lt;div&gt;&lt;span style=&quot;color: rgb(0, 0, 0);&quot;&gt;PC&lt;/span&gt;&lt;/div&gt;&lt;div&gt;&lt;span style=&quot;color: rgba(0, 0, 0, 0);&quot;&gt;&lt;br&gt;&lt;/span&gt;&lt;/div&gt;" style="fontColor=#ffffff;verticalAlign=top;verticalLabelPosition=bottom;labelPosition=center;align=center;html=1;outlineConnect=0;fillColor=#00BEF2;strokeColor=#00BEF2;gradientDirection=north;strokeWidth=2;shape=mxgraph.networks.pc;" vertex="1" parent="1">
          <mxGeometry x="492" y="110" width="36" height="28" as="geometry" />
        </mxCell>
        <mxCell id="BxJ1AubEoh4twLCBfhUA-7" value="&lt;div&gt;Laptop&lt;/div&gt;&lt;div&gt;&lt;br&gt;&lt;/div&gt;" style="verticalLabelPosition=bottom;html=1;verticalAlign=top;align=center;strokeColor=none;fillColor=light-dark(#00BEF2,#0089B6);shape=mxgraph.azure.laptop;pointerEvents=1;resizable=1;" vertex="1" parent="1">
          <mxGeometry x="267" y="108" width="43" height="29" as="geometry" />
        </mxCell>
        <mxCell id="BxJ1AubEoh4twLCBfhUA-8" value="API Gateway" style="rounded=1;whiteSpace=wrap;html=1;fillColor=#1ba1e2;fontColor=#ffffff;strokeColor=#006EAF;" vertex="1" parent="1">
          <mxGeometry x="290" y="200" width="220" height="40" as="geometry" />
        </mxCell>
        <mxCell id="BxJ1AubEoh4twLCBfhUA-11" value="" style="rounded=0;whiteSpace=wrap;html=1;shadow=0;glass=0;dashed=1;fillColor=#B1DDF0;strokeColor=#10739e;" vertex="1" parent="1">
          <mxGeometry x="200" y="280" width="400" height="460" as="geometry" />
        </mxCell>
        <mxCell id="BxJ1AubEoh4twLCBfhUA-12" value="&lt;div&gt;&lt;span data-teams=&quot;true&quot;&gt;&lt;span class=&quot;fui-ChatMessage__body r1wszx8g ___dt47r00 f10pi13n ftqa4ok f2hkw1w f8hki3x f1d2448m f1bjia2o ffh67wi f1j6vpng f1pniga2 f987i1v f1ffjurs f15bsgw9 f14e48fq f18yb2kv fd6o370 ffwy5si f3znvyf f57olzd f4stah7 f480a47 fs1por5 fk6fouc figsok6 fkhj508 f19n0e5 f9ijwd5 fx91ewl f1deotkl f1o0qvyv f9ggezi f1xp5gbu f150uoa4 ffyari3 f16xq7d1 fo7qwa0 fxowb0n fn5cvv7 f11ghf3q f13aoclr flypziy f10kwr27 fquw1qa fftr39l f13lathq f15hsm81 f2ss68y ffb60jq f8nuap2 f13nk4fk f7jacry fq08z5q fd9af6s fr74w9q fcl9uv6 f13sm7pj f1u6qqly f16wpxbl faim3u9 f6cs3qo fa2w2z3 fd39nx6 f10gn8j9 frcqmxy f1w9ws4k f1ddxkqj fd10euv fvuz61 f1nbc6gw&quot; id=&quot;message-body-1741123637637&quot;&gt;&lt;span class=&quot;fui-Primitive ___16zla5h f1oy3dpc fqtknz5 fyvcxda&quot; aria-label=&quot;ResourceProxyServer&quot; id=&quot;content-1741123637637&quot; dir=&quot;auto&quot;&gt;&lt;p&gt;Resource Proxy Server&lt;/p&gt;&lt;/span&gt;&lt;/span&gt;&lt;/span&gt;&lt;/div&gt;" style="whiteSpace=wrap;html=1;aspect=fixed;strokeColor=#FFFFFF;" vertex="1" parent="1">
          <mxGeometry x="231.5" y="317" width="75" height="68" as="geometry" />
        </mxCell>
        <mxCell id="BxJ1AubEoh4twLCBfhUA-13" value="&lt;div&gt;&lt;span style=&quot;color: rgb(102, 102, 102);&quot;&gt;Auth&amp;nbsp;&lt;/span&gt;&lt;/div&gt;&lt;div&gt;&lt;span style=&quot;color: rgb(102, 102, 102);&quot;&gt;Service&lt;/span&gt;&lt;/div&gt;" style="whiteSpace=wrap;html=1;aspect=fixed;strokeColor=#FFFFFF;" vertex="1" parent="1">
          <mxGeometry x="361" y="316" width="77" height="69" as="geometry" />
        </mxCell>
        <mxCell id="BxJ1AubEoh4twLCBfhUA-33" value="&lt;div&gt;&lt;span style=&quot;background-color: rgb(27, 161, 226);&quot;&gt;&lt;span style=&quot;background-color: rgb(177, 221, 240);&quot;&gt;Database A&lt;/span&gt;&lt;span style=&quot;background-color: rgb(27, 161, 226);&quot;&gt; &lt;br&gt;&lt;/span&gt;&lt;/span&gt;&lt;/div&gt;" style="image;aspect=fixed;perimeter=ellipsePerimeter;html=1;align=center;shadow=0;dashed=0;spacingTop=3;image=img/lib/active_directory/database.svg;" vertex="1" parent="1">
          <mxGeometry x="230" y="670" width="50" height="37" as="geometry" />
        </mxCell>
        <mxCell id="BxJ1AubEoh4twLCBfhUA-34" value="&lt;span style=&quot;background-color: rgb(177, 221, 240);&quot;&gt;Database B&lt;/span&gt;" style="image;aspect=fixed;perimeter=ellipsePerimeter;html=1;align=center;shadow=0;dashed=0;spacingTop=3;image=img/lib/active_directory/database.svg;" vertex="1" parent="1">
          <mxGeometry x="517.5" y="670" width="50" height="37" as="geometry" />
        </mxCell>
        <mxCell id="BxJ1AubEoh4twLCBfhUA-43" style="edgeStyle=orthogonalEdgeStyle;rounded=0;orthogonalLoop=1;jettySize=auto;html=1;entryX=0.5;entryY=0;entryDx=0;entryDy=0;" edge="1" parent="1" source="BxJ1AubEoh4twLCBfhUA-8" target="BxJ1AubEoh4twLCBfhUA-13">
          <mxGeometry relative="1" as="geometry" />
        </mxCell>
        <mxCell id="BxJ1AubEoh4twLCBfhUA-50" value="" style="endArrow=classic;html=1;rounded=0;exitX=0.275;exitY=0.087;exitDx=0;exitDy=0;exitPerimeter=0;" edge="1" parent="1">
          <mxGeometry width="50" height="50" relative="1" as="geometry">
            <mxPoint x="310" y="353.02" as="sourcePoint" />
            <mxPoint x="360" y="353" as="targetPoint" />
          </mxGeometry>
        </mxCell>
        <mxCell id="BxJ1AubEoh4twLCBfhUA-52" value="" style="endArrow=classic;html=1;rounded=0;exitX=0.275;exitY=0.087;exitDx=0;exitDy=0;exitPerimeter=0;" edge="1" parent="1">
          <mxGeometry width="50" height="50" relative="1" as="geometry">
            <mxPoint x="442" y="354.02" as="sourcePoint" />
            <mxPoint x="492" y="354" as="targetPoint" />
          </mxGeometry>
        </mxCell>
        <mxCell id="BxJ1AubEoh4twLCBfhUA-53" value="" style="rounded=0;whiteSpace=wrap;html=1;fillColor=#b0e3e6;strokeColor=#B0E3E6;" vertex="1" parent="1">
          <mxGeometry x="210" y="421" width="380" height="158" as="geometry" />
        </mxCell>
        <mxCell id="BxJ1AubEoh4twLCBfhUA-18" value="&lt;div&gt;&lt;font style=&quot;font-size: 14px; color: rgb(102, 102, 102);&quot;&gt;Microservices&lt;/font&gt;&lt;/div&gt;" style="text;html=1;align=center;verticalAlign=middle;whiteSpace=wrap;rounded=0;" vertex="1" parent="1">
          <mxGeometry x="361" y="424" width="60" height="30" as="geometry" />
        </mxCell>
        <mxCell id="BxJ1AubEoh4twLCBfhUA-21" value="" style="rounded=0;whiteSpace=wrap;html=1;fillColor=#cce5ff;strokeColor=#CCE5FF;" vertex="1" parent="1">
          <mxGeometry x="229" y="455" width="161.5" height="96" as="geometry" />
        </mxCell>
        <mxCell id="BxJ1AubEoh4twLCBfhUA-22" value="" style="rounded=0;whiteSpace=wrap;html=1;strokeColor=#CCE5FF;fillColor=#CCE5FF;" vertex="1" parent="1">
          <mxGeometry x="408" y="454" width="160" height="98" as="geometry" />
        </mxCell>
        <mxCell id="BxJ1AubEoh4twLCBfhUA-26" value="&lt;span style=&quot;color: rgb(102, 102, 102);&quot;&gt;Service A&lt;/span&gt;" style="rounded=1;whiteSpace=wrap;html=1;strokeColor=#FFFFFF;" vertex="1" parent="1">
          <mxGeometry x="249.75" y="489" width="120" height="30" as="geometry" />
        </mxCell>
        <mxCell id="BxJ1AubEoh4twLCBfhUA-28" value="&lt;span style=&quot;color: rgb(102, 102, 102);&quot;&gt;Service B&lt;/span&gt;" style="rounded=1;whiteSpace=wrap;html=1;strokeColor=#FFFFFF;" vertex="1" parent="1">
          <mxGeometry x="428.5" y="485" width="120" height="30" as="geometry" />
        </mxCell>
        <mxCell id="BxJ1AubEoh4twLCBfhUA-55" value="" style="endArrow=classic;html=1;rounded=0;exitX=0.161;exitY=0.99;exitDx=0;exitDy=0;exitPerimeter=0;" edge="1" parent="1" source="BxJ1AubEoh4twLCBfhUA-21" target="BxJ1AubEoh4twLCBfhUA-33">
          <mxGeometry width="50" height="50" relative="1" as="geometry">
            <mxPoint x="255" y="620" as="sourcePoint" />
            <mxPoint x="305" y="570" as="targetPoint" />
          </mxGeometry>
        </mxCell>
        <mxCell id="BxJ1AubEoh4twLCBfhUA-56" value="" style="endArrow=classic;html=1;rounded=0;exitX=0.831;exitY=0.99;exitDx=0;exitDy=0;exitPerimeter=0;" edge="1" parent="1" source="BxJ1AubEoh4twLCBfhUA-22">
          <mxGeometry width="50" height="50" relative="1" as="geometry">
            <mxPoint x="542" y="621" as="sourcePoint" />
            <mxPoint x="542" y="671" as="targetPoint" />
          </mxGeometry>
        </mxCell>
        <mxCell id="BxJ1AubEoh4twLCBfhUA-63" value="&lt;div&gt;Redis&lt;/div&gt;" style="outlineConnect=0;dashed=0;verticalLabelPosition=bottom;verticalAlign=top;align=center;html=1;shape=mxgraph.aws3.cache_node;fillColor=#2E73B8;gradientColor=none;" vertex="1" parent="1">
          <mxGeometry x="490" y="317" width="70" height="63" as="geometry" />
        </mxCell>
        <mxCell id="BxJ1AubEoh4twLCBfhUA-65" value="" style="edgeStyle=segmentEdgeStyle;endArrow=classic;html=1;curved=0;rounded=0;endSize=8;startSize=8;" edge="1" parent="1">
          <mxGeometry width="50" height="50" relative="1" as="geometry">
            <mxPoint x="270" y="385" as="sourcePoint" />
            <mxPoint x="270" y="421" as="targetPoint" />
          </mxGeometry>
        </mxCell>
        <mxCell id="BxJ1AubEoh4twLCBfhUA-66" value="" style="edgeStyle=segmentEdgeStyle;endArrow=classic;html=1;curved=0;rounded=0;endSize=8;startSize=8;exitX=1;exitY=0.25;exitDx=0;exitDy=0;" edge="1" parent="1">
          <mxGeometry width="50" height="50" relative="1" as="geometry">
            <mxPoint x="510" y="210" as="sourcePoint" />
            <mxPoint x="530" y="317" as="targetPoint" />
            <Array as="points">
              <mxPoint x="510" y="220" />
              <mxPoint x="530" y="220" />
            </Array>
          </mxGeometry>
        </mxCell>
        <mxCell id="BxJ1AubEoh4twLCBfhUA-67" value="" style="edgeStyle=segmentEdgeStyle;endArrow=classic;html=1;curved=0;rounded=0;endSize=8;startSize=8;exitX=0;exitY=0.5;exitDx=0;exitDy=0;" edge="1" parent="1" source="BxJ1AubEoh4twLCBfhUA-8">
          <mxGeometry width="50" height="50" relative="1" as="geometry">
            <mxPoint x="320" y="267" as="sourcePoint" />
            <mxPoint x="270" y="317" as="targetPoint" />
          </mxGeometry>
        </mxCell>
        <mxCell id="BxJ1AubEoh4twLCBfhUA-68" value="&lt;div&gt;&lt;font style=&quot;font-size: 14px;&quot;&gt;Clients&lt;/font&gt;&lt;/div&gt;" style="text;html=1;align=center;verticalAlign=middle;resizable=0;points=[];autosize=1;strokeColor=none;fillColor=none;" vertex="1" parent="1">
          <mxGeometry x="367" y="70" width="70" height="30" as="geometry" />
        </mxCell>
        <mxCell id="BxJ1AubEoh4twLCBfhUA-69" value="" style="sketch=0;points=[[0,0,0],[0.25,0,0],[0.5,0,0],[0.75,0,0],[1,0,0],[0,1,0],[0.25,1,0],[0.5,1,0],[0.75,1,0],[1,1,0],[0,0.25,0],[0,0.5,0],[0,0.75,0],[1,0.25,0],[1,0.5,0],[1,0.75,0]];outlineConnect=0;fontColor=#232F3E;fillColor=#8C4FFF;strokeColor=#ffffff;dashed=0;verticalLabelPosition=bottom;verticalAlign=top;align=center;html=1;fontSize=12;fontStyle=0;aspect=fixed;shape=mxgraph.aws4.resourceIcon;resIcon=mxgraph.aws4.managed_streaming_for_kafka;" vertex="1" parent="1">
          <mxGeometry x="378.5" y="641" width="43" height="43" as="geometry" />
        </mxCell>
        <mxCell id="BxJ1AubEoh4twLCBfhUA-73" value="" style="edgeStyle=segmentEdgeStyle;endArrow=classic;html=1;curved=0;rounded=0;endSize=8;startSize=8;dashed=1;exitX=0.556;exitY=1.01;exitDx=0;exitDy=0;exitPerimeter=0;" edge="1" parent="1">
          <mxGeometry width="50" height="50" relative="1" as="geometry">
            <mxPoint x="496.96000000000004" y="551.98" as="sourcePoint" />
            <mxPoint x="421.5" y="661.0000000000002" as="targetPoint" />
            <Array as="points">
              <mxPoint x="497" y="661" />
            </Array>
          </mxGeometry>
        </mxCell>
        <mxCell id="BxJ1AubEoh4twLCBfhUA-75" value="&lt;div&gt;Kafka Message Broker&lt;/div&gt;" style="text;html=1;align=center;verticalAlign=middle;whiteSpace=wrap;rounded=0;" vertex="1" parent="1">
          <mxGeometry x="331" y="687" width="135" height="30" as="geometry" />
        </mxCell>
        <mxCell id="BxJ1AubEoh4twLCBfhUA-76" value="&lt;div&gt;&lt;font style=&quot;font-size: 10px;&quot;&gt;Redis&lt;/font&gt;&lt;/div&gt;" style="outlineConnect=0;dashed=0;verticalLabelPosition=bottom;verticalAlign=top;align=center;html=1;shape=mxgraph.aws3.cache_node;fillColor=#2E73B8;gradientColor=none;" vertex="1" parent="1">
          <mxGeometry x="208" y="609" width="32" height="32" as="geometry" />
        </mxCell>
        <mxCell id="BxJ1AubEoh4twLCBfhUA-77" value="&lt;div&gt;&lt;font style=&quot;font-size: 10px;&quot;&gt;Redis&lt;/font&gt;&lt;/div&gt;" style="outlineConnect=0;dashed=0;verticalLabelPosition=bottom;verticalAlign=top;align=center;html=1;shape=mxgraph.aws3.cache_node;fillColor=#2E73B8;gradientColor=none;" vertex="1" parent="1">
          <mxGeometry x="557" y="608" width="34" height="34" as="geometry" />
        </mxCell>
        <mxCell id="BxJ1AubEoh4twLCBfhUA-78" value="" style="edgeStyle=segmentEdgeStyle;endArrow=classic;html=1;curved=0;rounded=0;endSize=8;startSize=8;dashed=1;exitX=0.556;exitY=1.01;exitDx=0;exitDy=0;exitPerimeter=0;" edge="1" parent="1">
          <mxGeometry width="50" height="50" relative="1" as="geometry">
            <mxPoint x="298.5" y="552" as="sourcePoint" />
            <mxPoint x="378.5" y="661" as="targetPoint" />
            <Array as="points">
              <mxPoint x="299" y="661" />
            </Array>
          </mxGeometry>
        </mxCell>
        <mxCell id="BxJ1AubEoh4twLCBfhUA-81" value="" style="edgeStyle=segmentEdgeStyle;endArrow=classic;html=1;curved=0;rounded=0;endSize=8;startSize=8;exitX=0;exitY=0.5;exitDx=0;exitDy=0;" edge="1" parent="1" source="BxJ1AubEoh4twLCBfhUA-21">
          <mxGeometry width="50" height="50" relative="1" as="geometry">
            <mxPoint x="273" y="559" as="sourcePoint" />
            <mxPoint x="223" y="609" as="targetPoint" />
          </mxGeometry>
        </mxCell>
        <mxCell id="BxJ1AubEoh4twLCBfhUA-82" value="" style="edgeStyle=segmentEdgeStyle;endArrow=classic;html=1;curved=0;rounded=0;endSize=8;startSize=8;" edge="1" parent="1">
          <mxGeometry width="50" height="50" relative="1" as="geometry">
            <mxPoint x="570" y="505" as="sourcePoint" />
            <mxPoint x="575" y="609" as="targetPoint" />
          </mxGeometry>
        </mxCell>
      </root>
    </mxGraphModel>
  </diagram>
</mxfile>
